<svg width="18" height="18" viewBox="0 0 18 18" fill="none" xmlns="http://www.w3.org/2000/svg">
<path d="M4.25948 2.12982C4.25948 3.30609 3.30596 4.25964 2.12974 4.25964C0.953517 4.25964 0 3.30609 0 2.12982C0 0.953554 0.953517 0 2.12974 0C3.30596 0 4.25948 0.953554 4.25948 2.12982Z" fill="#353C94"/>
<path d="M11.1294 2.12982C11.1294 3.30609 10.1759 4.25964 8.99964 4.25964C7.82342 4.25964 6.8699 3.30609 6.8699 2.12982C6.8699 0.953554 7.82342 0 8.99964 0C10.1759 0 11.1294 0.953554 11.1294 2.12982Z" fill="#353C94"/>
<path d="M18 2.12982C18 3.30609 17.0465 4.25964 15.8703 4.25964C14.694 4.25964 13.7405 3.30609 13.7405 2.12982C13.7405 0.953554 14.694 0 15.8703 0C17.0465 0 18 0.953554 18 2.12982Z" fill="#353C94"/>
<path d="M4.25948 9C4.25948 10.1763 3.30596 11.1298 2.12974 11.1298C0.953517 11.1298 0 10.1763 0 9C0 7.82373 0.953517 6.87018 2.12974 6.87018C3.30596 6.87018 4.25948 7.82373 4.25948 9Z" fill="#353C94"/>
<path d="M11.1294 9C11.1294 10.1763 10.1759 11.1298 8.99964 11.1298C7.82342 11.1298 6.8699 10.1763 6.8699 9C6.8699 7.82373 7.82342 6.87018 8.99964 6.87018C10.1759 6.87018 11.1294 7.82373 11.1294 9Z" fill="#353C94"/>
<path d="M18 9C18 10.1763 17.0465 11.1298 15.8703 11.1298C14.694 11.1298 13.7405 10.1763 13.7405 9C13.7405 7.82373 14.694 6.87018 15.8703 6.87018C17.0465 6.87018 18 7.82373 18 9Z" fill="#353C94"/>
<path d="M4.25948 15.8702C4.25948 17.0464 3.30596 18 2.12974 18C0.953517 18 0 17.0464 0 15.8702C0 14.6939 0.953517 13.7404 2.12974 13.7404C3.30596 13.7404 4.25948 14.6939 4.25948 15.8702Z" fill="#353C94"/>
<path d="M11.1294 15.8702C11.1294 17.0464 10.1759 18 8.99964 18C7.82342 18 6.8699 17.0464 6.8699 15.8702C6.8699 14.6939 7.82342 13.7404 8.99964 13.7404C10.1759 13.7404 11.1294 14.6939 11.1294 15.8702Z" fill="#353C94"/>
<path d="M18 15.8702C18 17.0464 17.0465 18 15.8703 18C14.694 18 13.7405 17.0464 13.7405 15.8702C13.7405 14.6939 14.694 13.7404 15.8703 13.7404C17.0465 13.7404 18 14.6939 18 15.8702Z" fill="#353C94"/>
<path d="M7.69478 5.56491C7.69478 6.74118 6.74127 7.69473 5.56504 7.69473C4.38882 7.69473 3.43531 6.74118 3.43531 5.56491C3.43531 4.38864 4.38882 3.43509 5.56504 3.43509C6.74127 3.43509 7.69478 4.38864 7.69478 5.56491Z" fill="#353C94"/>
<path d="M14.5647 5.56491C14.5647 6.74118 13.6112 7.69473 12.4349 7.69473C11.2587 7.69473 10.3052 6.74118 10.3052 5.56491C10.3052 4.38864 11.2587 3.43509 12.4349 3.43509C13.6112 3.43509 14.5647 4.38864 14.5647 5.56491Z" fill="#353C94"/>
<path d="M7.69478 12.4351C7.69478 13.6114 6.74127 14.5649 5.56504 14.5649C4.38882 14.5649 3.43531 13.6114 3.43531 12.4351C3.43531 11.2588 4.38882 10.3053 5.56504 10.3053C6.74127 10.3053 7.69478 11.2588 7.69478 12.4351Z" fill="#353C94"/>
<path d="M14.5647 12.4351C14.5647 13.6114 13.6112 14.5649 12.4349 14.5649C11.2587 14.5649 10.3052 13.6114 10.3052 12.4351C10.3052 11.2588 11.2587 10.3053 12.4349 10.3053C13.6112 10.3053 14.5647 11.2588 14.5647 12.4351Z" fill="#353C94"/>
</svg>
