<svg width="12" height="12" viewBox="0 0 12 12" fill="none" xmlns="http://www.w3.org/2000/svg">
<path fill-rule="evenodd" clip-rule="evenodd" d="M2.42668 9.57332C4.40017 11.5468 7.59983 11.5468 9.57332 9.57332C11.5468 7.59983 11.5468 4.40017 9.57332 2.42668C7.59983 0.453192 4.40017 0.453192 2.42668 2.42668C0.453193 4.40017 0.453193 7.59983 2.42668 9.57332ZM1.75736 10.2426C4.10051 12.5858 7.89949 12.5858 10.2426 10.2426C12.5858 7.89949 12.5858 4.10051 10.2426 1.75736C7.89949 -0.585786 4.10051 -0.585786 1.75736 1.75736C-0.585786 4.10051 -0.585786 7.89949 1.75736 10.2426Z" fill="#101118"/>
<path d="M5.71984 2.84806L8.9585 6.08671L8.28917 6.75604L5.05052 3.51738L5.71984 2.84806Z" fill="#101118"/>
<path d="M8.95843 6.08664L5.71977 9.3253L5.05045 8.65598L8.28911 5.41732L8.95843 6.08664Z" fill="#101118"/>
<path d="M8.2691 6.47297H0.528424V5.5264H8.2691V6.47297Z" fill="#101118"/>
</svg>
