<svg width="21" height="21" viewBox="0 0 21 21" fill="none" xmlns="http://www.w3.org/2000/svg">
<path fill-rule="evenodd" clip-rule="evenodd" d="M4.24669 16.7533C7.7003 20.2069 13.2997 20.2069 16.7533 16.7533C20.2069 13.2997 20.2069 7.7003 16.7533 4.24669C13.2997 0.793087 7.7003 0.793087 4.24669 4.24669C0.793087 7.7003 0.793087 13.2997 4.24669 16.7533ZM3.07538 17.9246C7.17588 22.0251 13.8241 22.0251 17.9246 17.9246C22.0251 13.8241 22.0251 7.17588 17.9246 3.07538C13.8241 -1.02513 7.17588 -1.02513 3.07538 3.07538C-1.02513 7.17588 -1.02513 13.8241 3.07538 17.9246Z" fill="#FBF9F4"/>
<path d="M10.0097 4.9841L15.6774 10.6517L14.5061 11.8231L8.8384 6.15541L10.0097 4.9841Z" fill="#FBF9F4"/>
<path d="M15.6772 10.6516L10.0096 16.3193L8.83828 15.148L14.5059 9.48031L15.6772 10.6516Z" fill="#FBF9F4"/>
<path d="M14.4709 11.3277H0.924743V9.6712H14.4709V11.3277Z" fill="#FBF9F4"/>
</svg>
