<svg width="167" height="165" viewBox="0 0 167 165" fill="none" xmlns="http://www.w3.org/2000/svg">
<g clip-path="url(#clip0_8553_11387)">
<path d="M0 164.254L67.4653 0H98.584L166.298 164.254H140.656L123.977 123.549L117.902 108.995H47.002L40.8277 123.549L24.3971 164.254H0ZM110.245 89.7921L95.3477 52.6761C94.8498 51.2394 94.1029 49.2441 93.1071 46.6901C92.1113 44.1362 91.0326 41.3427 89.8708 38.3099C88.709 35.1174 87.5472 31.9249 86.3854 28.7324C85.2237 25.3803 84.1449 22.3474 83.1491 19.6338H81.6554C80.4936 22.8263 79.1659 26.4976 77.6722 30.6479C76.1785 34.7981 74.6849 38.8686 73.1912 42.8592C71.6975 46.6901 70.4526 49.9624 69.4568 52.6761L54.3796 89.7921H110.245Z" fill="#101118"/>
</g>
<defs>
<clipPath id="clip0_8553_11387">
<rect width="166.298" height="164.254" fill="white"/>
</clipPath>
</defs>
</svg>
