<svg width="158" height="170" viewBox="0 0 158 170" fill="none" xmlns="http://www.w3.org/2000/svg">
<g clip-path="url(#clip0_8553_11393)">
<path d="M82.6437 170C65.2172 170 50.4462 166.967 38.3307 160.901C26.2151 154.676 16.9211 145.338 10.4484 132.887C4.14164 120.277 0.988281 104.315 0.988281 85C0.988281 56.4272 8.2079 35.1174 22.647 21.0704C37.086 7.02348 57.1679 0 82.8927 0C97.4977 0 110.443 2.31455 121.729 6.94366C133.014 11.4131 141.811 18.277 148.117 27.5352C154.59 36.6338 157.826 48.1268 157.826 62.0141H133.927C133.927 52.4366 131.77 44.5352 127.455 38.3099C123.306 32.0845 117.414 27.4554 109.779 24.4225C102.145 21.23 93.1826 19.6338 82.8927 19.6338C70.9431 19.6338 60.6532 21.8685 52.0229 26.338C43.3927 30.8075 36.837 37.7512 32.356 47.169C27.8749 56.4272 25.6344 68.3991 25.6344 83.0845V88.1127C25.6344 102.638 27.8749 114.531 32.356 123.789C36.837 132.887 43.3096 139.592 51.7739 143.901C60.4042 148.211 70.7772 150.366 82.8927 150.366C93.5145 150.366 102.643 148.85 110.277 145.817C118.078 142.784 124.052 138.155 128.201 131.93C132.517 125.545 134.674 120.699 134.674 111.121H157.826C157.826 125.328 154.507 133.845 147.868 142.944C141.396 152.042 132.517 158.826 121.231 163.296C109.945 167.765 97.0827 170 82.6437 170Z" fill="#101118"/>
</g>
<defs>
<clipPath id="clip0_8553_11393">
<rect width="156.838" height="170" fill="white" transform="translate(0.988281)"/>
</clipPath>
</defs>
</svg>
