<svg width="142" height="168" viewBox="0 0 142 168" fill="none" xmlns="http://www.w3.org/2000/svg">
<g clip-path="url(#clip0_8553_11381)">
<path d="M70.6356 167.127C56.1965 167.127 43.749 164.892 33.2931 160.423C22.8372 155.953 14.7879 148.93 9.14502 139.352C3.66813 129.615 0.929688 117.164 0.929688 102V0H24.5799V104.394C24.5799 118.761 28.5631 129.535 36.5295 136.718C44.6618 143.901 56.0305 147.493 70.6356 147.493C85.4066 147.493 96.9412 143.901 105.24 136.718C113.538 129.535 117.687 118.761 117.687 104.394V0H141.088V102C141.088 117.164 138.267 129.615 132.624 139.352C126.981 148.93 118.849 155.953 108.227 160.423C97.771 164.892 85.2406 167.127 70.6356 167.127Z" fill="#101118"/>
</g>
<defs>
<clipPath id="clip0_8553_11381">
<rect width="140.159" height="167.127" fill="white" transform="translate(0.929688)"/>
</clipPath>
</defs>
</svg>
