<svg width="142" height="165" viewBox="0 0 142 165" fill="none" xmlns="http://www.w3.org/2000/svg">
<g clip-path="url(#clip0_8553_11384)">
<path d="M0.855469 164.254V0H88.9836C98.7756 0 107.24 1.67606 114.376 5.02818C121.513 8.22066 126.99 12.77 130.807 18.6761C134.79 24.5822 136.782 31.6056 136.782 39.7465C136.782 45.9718 135.62 51.7183 133.297 56.9859C130.973 62.2535 127.737 66.6432 123.588 70.1549C119.438 73.6667 114.708 76.3005 109.397 78.0563V79.0141C115.372 80.2911 120.766 82.6056 125.579 85.9577C130.392 89.3099 134.209 93.7793 137.031 99.3662C140.018 104.793 141.512 111.498 141.512 119.479C141.512 130.174 139.188 138.793 134.541 145.338C129.894 151.883 123.671 156.671 115.87 159.704C108.07 162.737 99.1076 164.254 88.9836 164.254H0.855469ZM24.5057 144.62H88.7346C97.1989 144.62 104.087 142.545 109.397 138.394C114.708 134.084 117.364 126.981 117.364 117.085C117.364 111.019 116.202 105.991 113.879 102C111.555 97.8498 108.153 94.8169 103.672 92.9014C99.1905 90.8263 93.5476 89.7887 86.743 89.7887H24.5057V144.62ZM24.5057 70.3944H84.5025C90.1453 70.3944 95.0414 69.3568 99.1905 67.2817C103.34 65.0469 106.576 62.0141 108.9 58.1831C111.389 54.1925 112.634 49.723 112.634 44.7747C112.634 36.1549 110.227 29.8498 105.414 25.8592C100.601 21.7089 94.2115 19.6338 86.2451 19.6338H24.5057V70.3944Z" fill="#101118"/>
</g>
<defs>
<clipPath id="clip0_8553_11384">
<rect width="140.656" height="164.254" fill="white" transform="translate(0.855469)"/>
</clipPath>
</defs>
</svg>
