<svg width="21" height="21" viewBox="0 0 21 21" fill="none" xmlns="http://www.w3.org/2000/svg">
<g clip-path="url(#clip0_10069_36906)">
<path fill-rule="evenodd" clip-rule="evenodd" d="M10.5 19.3435C15.3841 19.3435 19.3435 15.3841 19.3435 10.5C19.3435 5.61586 15.3841 1.65649 10.5 1.65649C5.61586 1.65649 1.65649 5.61586 1.65649 10.5C1.65649 15.3841 5.61586 19.3435 10.5 19.3435ZM10.5 21C16.299 21 21 16.299 21 10.5C21 4.70101 16.299 0 10.5 0C4.70101 0 0 4.70101 0 10.5C0 16.299 4.70101 21 10.5 21Z" fill="#7D2E31"/>
<path fill-rule="evenodd" clip-rule="evenodd" d="M9.02467 3.73982C8.35807 5.39368 7.90836 7.79229 7.90836 10.5263C7.90836 13.2603 8.35807 15.6589 9.02467 17.3128C9.35975 18.1441 9.71717 18.7062 10.0293 19.0338C10.1807 19.1926 10.2986 19.2723 10.3724 19.3098C10.4382 19.3432 10.4677 19.3431 10.473 19.3431C10.4783 19.3431 10.5083 19.3432 10.5741 19.3098C10.6479 19.2723 10.7658 19.1927 10.9172 19.0338C11.2293 18.7062 11.5867 18.1441 11.9218 17.3128C12.5884 15.6589 13.0381 13.2603 13.0381 10.5263C13.0381 7.79229 12.5884 5.39368 11.9218 3.73982C11.5867 2.90848 11.2293 2.34635 10.9172 2.01881C10.7658 1.85994 10.6479 1.78029 10.5741 1.74283C10.5083 1.70939 10.4788 1.70948 10.4735 1.7095C10.4683 1.70948 10.4382 1.70939 10.3724 1.74283C10.2986 1.78029 10.1807 1.85994 10.0293 2.01881C9.71717 2.34635 9.35975 2.90848 9.02467 3.73982ZM10.4733 0.0530128C8.14185 0.0530126 6.25188 4.74206 6.25188 10.5263C6.25188 16.3105 8.14185 20.9996 10.4733 20.9996C12.8047 20.9996 14.6946 16.3105 14.6946 10.5263C14.6946 4.74206 12.8047 0.053013 10.4733 0.0530128Z" fill="#7D2E31"/>
<path d="M0.694405 9.67164H20.3585V11.3281H0.694405V9.67164Z" fill="#7D2E31"/>
</g>
<defs>
<clipPath id="clip0_10069_36906">
<rect width="21" height="21" fill="white"/>
</clipPath>
</defs>
</svg>
