<svg width="180" height="23" viewBox="0 0 180 23" fill="none" xmlns="http://www.w3.org/2000/svg">
<path d="M45.2294 22.1645C43.3178 22.1645 41.6699 21.8682 40.2856 21.2754C38.9013 20.6827 37.8357 19.7512 37.0886 18.481C36.3635 17.1897 36.001 15.5385 36.001 13.5274V0H39.132V13.8449C39.132 15.7502 39.6594 17.1791 40.7141 18.1317C41.7907 19.0844 43.2958 19.5607 45.2294 19.5607C47.1849 19.5607 48.712 19.0844 49.8106 18.1317C50.9093 17.1791 51.4586 15.7502 51.4586 13.8449V0H54.5567V13.5274C54.5567 15.5385 54.1831 17.1897 53.4361 18.481C52.689 19.7512 51.6124 20.6827 50.2061 21.2754C48.8219 21.8682 47.163 22.1645 45.2294 22.1645Z" fill="#101118"/>
<path d="M59.5566 21.7835V0H71.224C72.5204 0 73.641 0.222281 74.5858 0.666843C75.5306 1.09023 76.2557 1.69357 76.761 2.47684C77.2884 3.26011 77.552 4.19158 77.552 5.27122C77.552 6.09684 77.3982 6.85894 77.0906 7.55754C76.783 8.25613 76.3545 8.8383 75.8052 9.30403C75.2559 9.76976 74.6297 10.1191 73.9266 10.3519V10.4789C74.7176 10.6483 75.4317 10.9553 76.0689 11.3998C76.7061 11.8444 77.2115 12.4371 77.585 13.1781C77.9805 13.8978 78.1783 14.7869 78.1783 15.8454C78.1783 17.2638 77.8706 18.4069 77.2554 19.2749C76.6402 20.1428 75.8162 20.7779 74.7835 21.1802C73.7508 21.5824 72.5643 21.7835 71.224 21.7835H59.5566ZM62.6877 19.1796H71.191C72.3116 19.1796 73.2235 18.9044 73.9266 18.354C74.6297 17.7824 74.9813 16.8404 74.9813 15.5279C74.9813 14.7234 74.8275 14.0566 74.5199 13.5274C74.2122 12.9769 73.7618 12.5747 73.1685 12.3207C72.5753 12.0455 71.8282 11.9079 70.9274 11.9079H62.6877V19.1796ZM62.6877 9.33578H70.6307C71.3778 9.33578 72.026 9.19818 72.5753 8.92297C73.1246 8.6266 73.5531 8.22438 73.8607 7.71631C74.1903 7.18707 74.3551 6.59432 74.3551 5.93807C74.3551 4.79491 74.0365 3.95871 73.3993 3.42947C72.7621 2.87906 71.9161 2.60386 70.8614 2.60386H62.6877V9.33578Z" fill="#101118"/>
<path d="M83.1787 21.7835L92.1105 0H96.2303L105.195 21.7835H101.8L99.5921 16.3852L98.7879 14.4551H89.4013L88.5839 16.3852L86.4087 21.7835H83.1787ZM97.7742 11.9083L95.8019 6.98596C95.7359 6.79543 95.6371 6.53081 95.5052 6.1921C95.3734 5.85339 95.2306 5.48292 95.0768 5.0807C94.923 4.65731 94.7692 4.23391 94.6154 3.81052C94.4615 3.36596 94.3187 2.96374 94.1869 2.60386H93.9891C93.8353 3.02725 93.6595 3.51415 93.4618 4.06456C93.264 4.61497 93.0663 5.15479 92.8685 5.68403C92.6708 6.1921 92.506 6.62608 92.3742 6.98596L90.9899 10.3996L90.3781 11.9083H97.7742Z" fill="#101118"/>
<path d="M110.194 21.7835V0H122.092C125.791 0 128.981 2.44899 128.981 5.96683C128.981 8.36692 127.313 10.5657 125.026 11.4313L129.772 21.7835H126.344L121.928 11.9711H113.325V21.7835H110.194ZM113.325 9.29506H121.796C123.81 9.29506 125.817 8.03654 125.817 5.96683C125.817 3.76849 123.9 2.60386 121.796 2.60386H113.325V9.29506Z" fill="#101118"/>
<path d="M145.583 22.5456C143.276 22.5456 141.32 22.1434 139.716 21.3389C138.112 20.5133 136.882 19.2749 136.025 17.6237C135.19 15.9513 134.772 13.8343 134.772 11.2728C134.772 7.48344 135.728 4.65731 137.64 2.79438C139.551 0.931461 142.21 0 145.616 0C147.549 0 149.263 0.306959 150.757 0.920876C152.252 1.51362 153.416 2.42392 154.251 3.65175C155.108 4.85842 155.536 6.38263 155.536 8.22438H152.372C152.372 6.9542 152.087 5.90631 151.515 5.0807C150.966 4.25508 150.186 3.64117 149.175 3.23894C148.165 2.81555 146.978 2.60386 145.616 2.60386C144.034 2.60386 142.672 2.90023 141.529 3.49298C140.386 4.08573 139.519 5.0066 138.925 6.25561C138.332 7.48344 138.035 9.07116 138.035 11.0188V11.6856C138.035 13.612 138.332 15.1892 138.925 16.417C139.519 17.6237 140.375 18.5128 141.496 19.0844C142.639 19.6559 144.012 19.9417 145.616 19.9417C147.022 19.9417 148.231 19.7406 149.241 19.3384C150.274 18.9362 151.065 18.3223 151.614 17.4967C152.186 16.6499 152.471 16.0072 152.471 14.737H155.536C155.536 16.6211 155.097 17.7507 154.218 18.9574C153.361 20.164 152.186 21.0637 150.691 21.6565C149.197 22.2492 147.494 22.5456 145.583 22.5456Z" fill="#101118"/>
<path d="M160.536 21.7835V0H163.667V9.33578H175.961V0H179.125V21.7835H175.961V11.9714H163.667V21.7835H160.536Z" fill="#101118"/>
<rect x="25.5947" y="0.355469" width="3.154" height="21.7923" fill="#101118"/>
<rect y="13" width="3" height="26" transform="rotate(-90 0 13)" fill="#101118"/>
<rect width="2.6545" height="17.8585" transform="matrix(-0.720141 -0.693828 0.720141 -0.693828 6.05664 18.25)" fill="#101118"/>
<rect x="10.1816" y="0.355469" width="3.154" height="21.7923" fill="#101118"/>
</svg>
